<svg xmlns="http://www.w3.org/2000/svg" version="1.1" xmlns:xlink="http://www.w3.org/1999/xlink" xmlns:svgjs="http://svgjs.dev/svgjs" width="1440" height="600" preserveAspectRatio="none" viewBox="0 0 1440 600"><g mask="url(&quot;#SvgjsMask1022&quot;)" fill="none"><rect width="1440" height="600" x="0" y="0" fill="#0e2a47"></rect><path d="M701.0220029355695 34.25900094280319L793.7866722057244 85.79492831511145 793.7866722057244-6.969740955043449z" fill="rgba(28, 83, 142, 0.4)" class="triangle-float3"></path><path d="M434.44069651151466 423.034410381592L504.50032027560064 296.64350339483224 308.04978952475483 352.974786617506z" fill="rgba(28, 83, 142, 0.4)" class="triangle-float1"></path><path d="M251.63124505784756 371.1672320324458L259.1222198653242 514.1035462582342 402.0585340911126 506.6125714507576 394.567559283636 363.67625722496916z" fill="rgba(28, 83, 142, 0.4)" class="triangle-float2"></path><path d="M939.4831200921097 202.92410615400033L1073.092038620991 217.0957210688761 1027.2005242276446 108.98208831407618z" fill="rgba(28, 83, 142, 0.4)" class="triangle-float1"></path><path d="M1339.807,857.298C1402.093,854.494,1449.601,808.397,1480.756,754.39C1511.886,700.425,1530.479,634.867,1499.198,580.99C1468.016,527.283,1401.9,510.514,1339.807,511.627C1279.984,512.7,1222.356,536.192,1190.018,586.533C1154.828,641.313,1143.499,711.184,1175.016,768.156C1207.418,826.727,1272.939,860.309,1339.807,857.298" fill="rgba(28, 83, 142, 0.4)" class="triangle-float3"></path><path d="M360.14781234472224 283.83190631820213L291.26829138013625 394.06218206163607 401.4985671235701 462.94170302622206 470.3780880881562 352.7114272827881z" fill="rgba(28, 83, 142, 0.4)" class="triangle-float1"></path><path d="M1254.13,601.481C1289.011,601.29,1321.904,587.21,1341.839,558.585C1365.422,524.722,1383.169,481.091,1363.072,445.049C1342.645,408.415,1296.074,401.305,1254.13,401.29C1212.153,401.275,1165.7,408.423,1145.057,444.973C1124.63,481.139,1140.994,525.477,1164.743,559.554C1184.911,588.493,1218.858,601.674,1254.13,601.481" fill="rgba(28, 83, 142, 0.4)" class="triangle-float1"></path><path d="M996.4365356397119 436.15773756083416L1090.4564584705663 432.87448950802593 1087.1732104177581 338.85456667717153 993.1532875869036 342.13781472997977z" fill="rgba(28, 83, 142, 0.4)" class="triangle-float2"></path><path d="M538.44,424.991C586.728,425.95,636.255,413.138,663.275,373.105C693.599,328.178,703.649,268.221,675.525,221.885C648.182,176.836,591.096,165.322,538.44,167.436C489.999,169.381,443.51,190.244,419.183,232.179C394.773,274.256,396.321,326.94,421.909,368.311C446.262,407.684,492.153,424.072,538.44,424.991" fill="rgba(28, 83, 142, 0.4)" class="triangle-float2"></path><path d="M925.533,367.186C982.227,369.052,1025.204,322.065,1053.124,272.687C1080.515,224.246,1093.163,166.473,1066.705,117.516C1039.066,66.372,983.565,33.14,925.533,36.592C872.127,39.768,834.613,84.868,810.729,132.741C789.675,174.94,790.965,222.386,811.705,264.741C835.766,313.877,870.852,365.386,925.533,367.186" fill="rgba(28, 83, 142, 0.4)" class="triangle-float1"></path><path d="M1273.6455051443359 704.1920400068485L1428.0498030636747 622.0938185140673 1345.9515815708935 467.68952059472844 1191.5472836515546 549.7877420875097z" fill="rgba(28, 83, 142, 0.4)" class="triangle-float3"></path><path d="M1174.726,510.596C1225.561,510.591,1282.838,509.892,1310.186,467.04C1338.971,421.937,1328.036,361.917,1297.775,317.79C1271.067,278.844,1221.902,267.382,1174.726,269.513C1131.753,271.454,1093.869,292.627,1069.537,328.101C1040.793,370.006,1013.841,423.042,1039.218,467.068C1064.611,511.123,1123.877,510.601,1174.726,510.596" fill="rgba(28, 83, 142, 0.4)" class="triangle-float1"></path></g><defs><mask id="SvgjsMask1022"><rect width="1440" height="600" fill="#ffffff"></rect></mask><style>
                @keyframes float1 {
                    0%{transform: translate(0, 0)}
                    50%{transform: translate(-10px, 0)}
                    100%{transform: translate(0, 0)}
                }

                .triangle-float1 {
                    animation: float1 5s infinite;
                }

                @keyframes float2 {
                    0%{transform: translate(0, 0)}
                    50%{transform: translate(-5px, -5px)}
                    100%{transform: translate(0, 0)}
                }

                .triangle-float2 {
                    animation: float2 4s infinite;
                }

                @keyframes float3 {
                    0%{transform: translate(0, 0)}
                    50%{transform: translate(0, -10px)}
                    100%{transform: translate(0, 0)}
                }

                .triangle-float3 {
                    animation: float3 6s infinite;
                }
            </style></defs></svg>