<svg xmlns="http://www.w3.org/2000/svg" version="1.1" xmlns:xlink="http://www.w3.org/1999/xlink" xmlns:svgjs="http://svgjs.dev/svgjs" width="1440" height="600" preserveAspectRatio="none" viewBox="0 0 1440 600"><g mask="url(&quot;#SvgjsMask1062&quot;)" fill="none"><rect width="1440" height="600" x="0" y="0" fill="#0e2a47"></rect><path d="M0,608.114C117.235,622.003,245.699,599.075,336.569,523.712C424.715,450.608,427.003,320.881,472.861,215.948C517.771,113.186,605.33,25.381,603.356,-86.749C601.296,-203.758,548.882,-321.92,462.013,-400.337C378.531,-475.697,255.741,-472.161,146.552,-499.109C42.731,-524.732,-60.644,-586.067,-162.83,-554.549C-264.741,-523.116,-314.721,-413.789,-386.323,-334.751C-459.795,-253.648,-576.787,-193.42,-588.547,-84.62C-600.308,24.187,-497.978,107.516,-444.445,202.971C-395.923,289.491,-362.252,382.777,-288.943,449.604C-206.079,525.141,-111.347,594.922,0,608.114" fill="#0c223a"></path><path d="M1440 1041.1399999999999C1521.424 1037.771 1597 990.424 1652.649 930.8879999999999 1702.1480000000001 877.932 1698.731 797.848 1728.981 731.973 1759.319 665.906 1820.224 615.863 1830.365 543.874 1842.261 459.428 1843.1190000000001 363.414 1790.337 296.431 1737.216 229.01799999999997 1643.079 209.349 1557.978 198.204 1481.084 188.13400000000001 1401.227 199.178 1333.289 236.57600000000002 1272.243 270.18 1241.171 336.191 1202.274 394.009 1168.095 444.813 1145.46 498.377 1119.77 553.958 1082.719 634.119 997.136 706.915 1017.9839999999999 792.7280000000001 1038.226 876.048 1141.842 905.4680000000001 1215.7350000000001 948.9639999999999 1286.827 990.8109999999999 1357.577 1044.55 1440 1041.1399999999999" fill="#113254"></path></g><defs><mask id="SvgjsMask1062"><rect width="1440" height="600" fill="#ffffff"></rect></mask></defs></svg>