<svg xmlns="http://www.w3.org/2000/svg" version="1.1" xmlns:xlink="http://www.w3.org/1999/xlink" xmlns:svgjs="http://svgjs.dev/svgjs" width="1440" height="600" preserveAspectRatio="none" viewBox="0 0 1440 600"><g mask="url(&quot;#SvgjsMask1009&quot;)" fill="none"><rect width="1440" height="600" x="0" y="0" fill="#0e2a47"></rect><path d="M28.55 -21.63L93.5 15.87L93.5 90.87L28.55 128.37L-36.4 90.87L-36.4 15.87zM93.5 315.87L158.46 353.37L158.46 428.37L93.5 465.87L28.55 428.37L28.55 353.37zM28.55 428.37L93.5 465.87L93.5 540.87L28.55 578.37L-36.4 540.87L-36.4 465.87zM223.41 540.87L288.37 578.37L288.37 653.37L223.41 690.87L158.46 653.37L158.46 578.37zM288.37 -21.63L353.32 15.87L353.32 90.87L288.37 128.37L223.41 90.87L223.41 15.87zM483.23 315.87L548.18 353.37L548.18 428.37L483.23 465.87L418.27 428.37L418.27 353.37zM548.18 203.37L613.13 240.87L613.13 315.87L548.18 353.37L483.23 315.87L483.23 240.87zM613.13 315.87L678.09 353.37L678.09 428.37L613.13 465.87L548.18 428.37L548.18 353.37zM743.04 315.87L808 353.37L808 428.37L743.04 465.87L678.09 428.37L678.09 353.37zM678.09 428.37L743.04 465.87L743.04 540.87L678.09 578.37L613.13 540.87L613.13 465.87zM807.99 -21.63L872.95 15.87L872.95 90.87L807.99 128.37L743.04 90.87L743.04 15.87zM872.95 90.87L937.9 128.37L937.9 203.37L872.95 240.87L807.99 203.37L807.99 128.37zM807.99 203.37L872.95 240.87L872.95 315.87L807.99 353.37L743.04 315.87L743.04 240.87zM872.95 315.87L937.9 353.37L937.9 428.37L872.95 465.87L807.99 428.37L807.99 353.37zM872.95 540.87L937.9 578.37L937.9 653.37L872.95 690.87L807.99 653.37L807.99 578.37zM937.9 203.37L1002.86 240.87L1002.86 315.87L937.9 353.37L872.95 315.87L872.95 240.87zM1002.86 315.87L1067.81 353.37L1067.81 428.37L1002.86 465.87L937.9 428.37L937.9 353.37zM937.9 428.37L1002.86 465.87L1002.86 540.87L937.9 578.37L872.95 540.87L872.95 465.87zM1002.86 540.87L1067.81 578.37L1067.81 653.37L1002.86 690.87L937.9 653.37L937.9 578.37zM1262.67 90.87L1327.62 128.37L1327.62 203.37L1262.67 240.87L1197.72 203.37L1197.72 128.37zM1197.72 203.37L1262.67 240.87L1262.67 315.87L1197.72 353.37L1132.76 315.87L1132.76 240.87zM1262.67 540.87L1327.62 578.37L1327.62 653.37L1262.67 690.87L1197.72 653.37L1197.72 578.37zM1392.58 315.87L1457.53 353.37L1457.53 428.37L1392.58 465.87L1327.63 428.37L1327.63 353.37zM1457.53 203.37L1522.49 240.87L1522.49 315.87L1457.53 353.37L1392.58 315.87L1392.58 240.87zM1522.49 315.87L1587.44 353.37L1587.44 428.37L1522.49 465.87L1457.53 428.37L1457.53 353.37zM1522.49 540.87L1587.44 578.37L1587.44 653.37L1522.49 690.87L1457.53 653.37L1457.53 578.37z" stroke="#03305d" stroke-width="2"></path><path d="M21.05 -21.63 a7.5 7.5 0 1 0 15 0 a7.5 7.5 0 1 0 -15 0zM86 15.87 a7.5 7.5 0 1 0 15 0 a7.5 7.5 0 1 0 -15 0zM86 90.87 a7.5 7.5 0 1 0 15 0 a7.5 7.5 0 1 0 -15 0zM21.05 128.37 a7.5 7.5 0 1 0 15 0 a7.5 7.5 0 1 0 -15 0zM-43.9 90.87 a7.5 7.5 0 1 0 15 0 a7.5 7.5 0 1 0 -15 0zM-43.9 15.87 a7.5 7.5 0 1 0 15 0 a7.5 7.5 0 1 0 -15 0zM86 315.87 a7.5 7.5 0 1 0 15 0 a7.5 7.5 0 1 0 -15 0zM150.96 353.37 a7.5 7.5 0 1 0 15 0 a7.5 7.5 0 1 0 -15 0zM150.96 428.37 a7.5 7.5 0 1 0 15 0 a7.5 7.5 0 1 0 -15 0zM86 465.87 a7.5 7.5 0 1 0 15 0 a7.5 7.5 0 1 0 -15 0zM21.05 428.37 a7.5 7.5 0 1 0 15 0 a7.5 7.5 0 1 0 -15 0zM21.05 353.37 a7.5 7.5 0 1 0 15 0 a7.5 7.5 0 1 0 -15 0zM86 540.87 a7.5 7.5 0 1 0 15 0 a7.5 7.5 0 1 0 -15 0zM21.05 578.37 a7.5 7.5 0 1 0 15 0 a7.5 7.5 0 1 0 -15 0zM-43.9 540.87 a7.5 7.5 0 1 0 15 0 a7.5 7.5 0 1 0 -15 0zM-43.9 465.87 a7.5 7.5 0 1 0 15 0 a7.5 7.5 0 1 0 -15 0zM215.91 540.87 a7.5 7.5 0 1 0 15 0 a7.5 7.5 0 1 0 -15 0zM280.87 578.37 a7.5 7.5 0 1 0 15 0 a7.5 7.5 0 1 0 -15 0zM280.87 653.37 a7.5 7.5 0 1 0 15 0 a7.5 7.5 0 1 0 -15 0zM215.91 690.87 a7.5 7.5 0 1 0 15 0 a7.5 7.5 0 1 0 -15 0zM150.96 653.37 a7.5 7.5 0 1 0 15 0 a7.5 7.5 0 1 0 -15 0zM150.96 578.37 a7.5 7.5 0 1 0 15 0 a7.5 7.5 0 1 0 -15 0zM280.87 -21.63 a7.5 7.5 0 1 0 15 0 a7.5 7.5 0 1 0 -15 0zM345.82 15.87 a7.5 7.5 0 1 0 15 0 a7.5 7.5 0 1 0 -15 0zM345.82 90.87 a7.5 7.5 0 1 0 15 0 a7.5 7.5 0 1 0 -15 0zM280.87 128.37 a7.5 7.5 0 1 0 15 0 a7.5 7.5 0 1 0 -15 0zM215.91 90.87 a7.5 7.5 0 1 0 15 0 a7.5 7.5 0 1 0 -15 0zM215.91 15.87 a7.5 7.5 0 1 0 15 0 a7.5 7.5 0 1 0 -15 0zM475.73 315.87 a7.5 7.5 0 1 0 15 0 a7.5 7.5 0 1 0 -15 0zM540.68 353.37 a7.5 7.5 0 1 0 15 0 a7.5 7.5 0 1 0 -15 0zM540.68 428.37 a7.5 7.5 0 1 0 15 0 a7.5 7.5 0 1 0 -15 0zM475.73 465.87 a7.5 7.5 0 1 0 15 0 a7.5 7.5 0 1 0 -15 0zM410.77 428.37 a7.5 7.5 0 1 0 15 0 a7.5 7.5 0 1 0 -15 0zM410.77 353.37 a7.5 7.5 0 1 0 15 0 a7.5 7.5 0 1 0 -15 0zM540.68 203.37 a7.5 7.5 0 1 0 15 0 a7.5 7.5 0 1 0 -15 0zM605.63 240.87 a7.5 7.5 0 1 0 15 0 a7.5 7.5 0 1 0 -15 0zM605.63 315.87 a7.5 7.5 0 1 0 15 0 a7.5 7.5 0 1 0 -15 0zM475.73 240.87 a7.5 7.5 0 1 0 15 0 a7.5 7.5 0 1 0 -15 0zM670.59 353.37 a7.5 7.5 0 1 0 15 0 a7.5 7.5 0 1 0 -15 0zM670.59 428.37 a7.5 7.5 0 1 0 15 0 a7.5 7.5 0 1 0 -15 0zM605.63 465.87 a7.5 7.5 0 1 0 15 0 a7.5 7.5 0 1 0 -15 0zM735.54 315.87 a7.5 7.5 0 1 0 15 0 a7.5 7.5 0 1 0 -15 0zM800.5 353.37 a7.5 7.5 0 1 0 15 0 a7.5 7.5 0 1 0 -15 0zM800.5 428.37 a7.5 7.5 0 1 0 15 0 a7.5 7.5 0 1 0 -15 0zM735.54 465.87 a7.5 7.5 0 1 0 15 0 a7.5 7.5 0 1 0 -15 0zM735.54 540.87 a7.5 7.5 0 1 0 15 0 a7.5 7.5 0 1 0 -15 0zM670.59 578.37 a7.5 7.5 0 1 0 15 0 a7.5 7.5 0 1 0 -15 0zM605.63 540.87 a7.5 7.5 0 1 0 15 0 a7.5 7.5 0 1 0 -15 0zM800.49 -21.63 a7.5 7.5 0 1 0 15 0 a7.5 7.5 0 1 0 -15 0zM865.45 15.87 a7.5 7.5 0 1 0 15 0 a7.5 7.5 0 1 0 -15 0zM865.45 90.87 a7.5 7.5 0 1 0 15 0 a7.5 7.5 0 1 0 -15 0zM800.49 128.37 a7.5 7.5 0 1 0 15 0 a7.5 7.5 0 1 0 -15 0zM735.54 90.87 a7.5 7.5 0 1 0 15 0 a7.5 7.5 0 1 0 -15 0zM735.54 15.87 a7.5 7.5 0 1 0 15 0 a7.5 7.5 0 1 0 -15 0zM930.4 128.37 a7.5 7.5 0 1 0 15 0 a7.5 7.5 0 1 0 -15 0zM930.4 203.37 a7.5 7.5 0 1 0 15 0 a7.5 7.5 0 1 0 -15 0zM865.45 240.87 a7.5 7.5 0 1 0 15 0 a7.5 7.5 0 1 0 -15 0zM800.49 203.37 a7.5 7.5 0 1 0 15 0 a7.5 7.5 0 1 0 -15 0zM865.45 315.87 a7.5 7.5 0 1 0 15 0 a7.5 7.5 0 1 0 -15 0zM800.49 353.37 a7.5 7.5 0 1 0 15 0 a7.5 7.5 0 1 0 -15 0zM735.54 240.87 a7.5 7.5 0 1 0 15 0 a7.5 7.5 0 1 0 -15 0zM930.4 353.37 a7.5 7.5 0 1 0 15 0 a7.5 7.5 0 1 0 -15 0zM930.4 428.37 a7.5 7.5 0 1 0 15 0 a7.5 7.5 0 1 0 -15 0zM865.45 465.87 a7.5 7.5 0 1 0 15 0 a7.5 7.5 0 1 0 -15 0zM800.49 428.37 a7.5 7.5 0 1 0 15 0 a7.5 7.5 0 1 0 -15 0zM865.45 540.87 a7.5 7.5 0 1 0 15 0 a7.5 7.5 0 1 0 -15 0zM930.4 578.37 a7.5 7.5 0 1 0 15 0 a7.5 7.5 0 1 0 -15 0zM930.4 653.37 a7.5 7.5 0 1 0 15 0 a7.5 7.5 0 1 0 -15 0zM865.45 690.87 a7.5 7.5 0 1 0 15 0 a7.5 7.5 0 1 0 -15 0zM800.49 653.37 a7.5 7.5 0 1 0 15 0 a7.5 7.5 0 1 0 -15 0zM800.49 578.37 a7.5 7.5 0 1 0 15 0 a7.5 7.5 0 1 0 -15 0zM995.36 240.87 a7.5 7.5 0 1 0 15 0 a7.5 7.5 0 1 0 -15 0zM995.36 315.87 a7.5 7.5 0 1 0 15 0 a7.5 7.5 0 1 0 -15 0zM1060.31 353.37 a7.5 7.5 0 1 0 15 0 a7.5 7.5 0 1 0 -15 0zM1060.31 428.37 a7.5 7.5 0 1 0 15 0 a7.5 7.5 0 1 0 -15 0zM995.36 465.87 a7.5 7.5 0 1 0 15 0 a7.5 7.5 0 1 0 -15 0zM995.36 540.87 a7.5 7.5 0 1 0 15 0 a7.5 7.5 0 1 0 -15 0zM1060.31 578.37 a7.5 7.5 0 1 0 15 0 a7.5 7.5 0 1 0 -15 0zM1060.31 653.37 a7.5 7.5 0 1 0 15 0 a7.5 7.5 0 1 0 -15 0zM995.36 690.87 a7.5 7.5 0 1 0 15 0 a7.5 7.5 0 1 0 -15 0zM1255.17 90.87 a7.5 7.5 0 1 0 15 0 a7.5 7.5 0 1 0 -15 0zM1320.12 128.37 a7.5 7.5 0 1 0 15 0 a7.5 7.5 0 1 0 -15 0zM1320.12 203.37 a7.5 7.5 0 1 0 15 0 a7.5 7.5 0 1 0 -15 0zM1255.17 240.87 a7.5 7.5 0 1 0 15 0 a7.5 7.5 0 1 0 -15 0zM1190.22 203.37 a7.5 7.5 0 1 0 15 0 a7.5 7.5 0 1 0 -15 0zM1190.22 128.37 a7.5 7.5 0 1 0 15 0 a7.5 7.5 0 1 0 -15 0zM1255.17 315.87 a7.5 7.5 0 1 0 15 0 a7.5 7.5 0 1 0 -15 0zM1190.22 353.37 a7.5 7.5 0 1 0 15 0 a7.5 7.5 0 1 0 -15 0zM1125.26 315.87 a7.5 7.5 0 1 0 15 0 a7.5 7.5 0 1 0 -15 0zM1125.26 240.87 a7.5 7.5 0 1 0 15 0 a7.5 7.5 0 1 0 -15 0zM1255.17 540.87 a7.5 7.5 0 1 0 15 0 a7.5 7.5 0 1 0 -15 0zM1320.12 578.37 a7.5 7.5 0 1 0 15 0 a7.5 7.5 0 1 0 -15 0zM1320.12 653.37 a7.5 7.5 0 1 0 15 0 a7.5 7.5 0 1 0 -15 0zM1255.17 690.87 a7.5 7.5 0 1 0 15 0 a7.5 7.5 0 1 0 -15 0zM1190.22 653.37 a7.5 7.5 0 1 0 15 0 a7.5 7.5 0 1 0 -15 0zM1190.22 578.37 a7.5 7.5 0 1 0 15 0 a7.5 7.5 0 1 0 -15 0zM1385.08 315.87 a7.5 7.5 0 1 0 15 0 a7.5 7.5 0 1 0 -15 0zM1450.03 353.37 a7.5 7.5 0 1 0 15 0 a7.5 7.5 0 1 0 -15 0zM1450.03 428.37 a7.5 7.5 0 1 0 15 0 a7.5 7.5 0 1 0 -15 0zM1385.08 465.87 a7.5 7.5 0 1 0 15 0 a7.5 7.5 0 1 0 -15 0zM1320.13 428.37 a7.5 7.5 0 1 0 15 0 a7.5 7.5 0 1 0 -15 0zM1320.13 353.37 a7.5 7.5 0 1 0 15 0 a7.5 7.5 0 1 0 -15 0zM1450.03 203.37 a7.5 7.5 0 1 0 15 0 a7.5 7.5 0 1 0 -15 0zM1514.99 240.87 a7.5 7.5 0 1 0 15 0 a7.5 7.5 0 1 0 -15 0zM1514.99 315.87 a7.5 7.5 0 1 0 15 0 a7.5 7.5 0 1 0 -15 0zM1385.08 240.87 a7.5 7.5 0 1 0 15 0 a7.5 7.5 0 1 0 -15 0zM1579.94 353.37 a7.5 7.5 0 1 0 15 0 a7.5 7.5 0 1 0 -15 0zM1579.94 428.37 a7.5 7.5 0 1 0 15 0 a7.5 7.5 0 1 0 -15 0zM1514.99 465.87 a7.5 7.5 0 1 0 15 0 a7.5 7.5 0 1 0 -15 0zM1514.99 540.87 a7.5 7.5 0 1 0 15 0 a7.5 7.5 0 1 0 -15 0zM1579.94 578.37 a7.5 7.5 0 1 0 15 0 a7.5 7.5 0 1 0 -15 0zM1579.94 653.37 a7.5 7.5 0 1 0 15 0 a7.5 7.5 0 1 0 -15 0zM1514.99 690.87 a7.5 7.5 0 1 0 15 0 a7.5 7.5 0 1 0 -15 0zM1450.03 653.37 a7.5 7.5 0 1 0 15 0 a7.5 7.5 0 1 0 -15 0zM1450.03 578.37 a7.5 7.5 0 1 0 15 0 a7.5 7.5 0 1 0 -15 0z" fill="#03305d"></path><path d="M21.95 -40.46L65.25 -15.46L65.25 34.54L21.95 59.54L-21.35 34.54L-21.35 -15.46zM21.95 259.54L65.25 284.54L65.25 334.54L21.95 359.54L-21.35 334.54L-21.35 284.54zM21.95 559.54L65.25 584.54L65.25 634.54L21.95 659.54L-21.35 634.54L-21.35 584.54zM108.56 -40.46L151.86 -15.46L151.86 34.54L108.56 59.54L65.25 34.54L65.25 -15.46zM238.46 334.54L281.76 359.54L281.76 409.54L238.46 434.54L195.16 409.54L195.16 359.54zM238.46 484.54L281.76 509.54L281.76 559.54L238.46 584.54L195.16 559.54L195.16 509.54zM281.76 -40.46L325.07 -15.46L325.07 34.54L281.76 59.54L238.46 34.54L238.46 -15.46zM281.76 259.54L325.07 284.54L325.07 334.54L281.76 359.54L238.46 334.54L238.46 284.54zM411.67 34.54L454.98 59.54L454.98 109.54L411.67 134.54L368.37 109.54L368.37 59.54zM368.37 259.54L411.67 284.54L411.67 334.54L368.37 359.54L325.07 334.54L325.07 284.54zM368.37 559.54L411.67 584.54L411.67 634.54L368.37 659.54L325.07 634.54L325.07 584.54zM454.98 -40.46L498.28 -15.46L498.28 34.54L454.98 59.54L411.67 34.54L411.67 -15.46zM454.98 109.54L498.28 134.54L498.28 184.54L454.98 209.54L411.67 184.54L411.67 134.54zM498.28 184.54L541.58 209.54L541.58 259.54L498.28 284.54L454.98 259.54L454.98 209.54zM454.98 409.54L498.28 434.54L498.28 484.54L454.98 509.54L411.67 484.54L411.67 434.54zM498.28 484.54L541.58 509.54L541.58 559.54L498.28 584.54L454.98 559.54L454.98 509.54zM454.98 559.54L498.28 584.54L498.28 634.54L454.98 659.54L411.67 634.54L411.67 584.54zM584.88 34.54L628.19 59.54L628.19 109.54L584.88 134.54L541.58 109.54L541.58 59.54zM584.88 334.54L628.19 359.54L628.19 409.54L584.88 434.54L541.58 409.54L541.58 359.54zM671.49 34.54L714.79 59.54L714.79 109.54L671.49 134.54L628.19 109.54L628.19 59.54zM671.49 184.54L714.79 209.54L714.79 259.54L671.49 284.54L628.19 259.54L628.19 209.54zM671.49 334.54L714.79 359.54L714.79 409.54L671.49 434.54L628.19 409.54L628.19 359.54zM628.19 409.54L671.49 434.54L671.49 484.54L628.19 509.54L584.88 484.54L584.88 434.54zM714.79 109.54L758.09 134.54L758.09 184.54L714.79 209.54L671.49 184.54L671.49 134.54zM758.09 334.54L801.4 359.54L801.4 409.54L758.09 434.54L714.79 409.54L714.79 359.54zM758.09 484.54L801.4 509.54L801.4 559.54L758.09 584.54L714.79 559.54L714.79 509.54zM801.4 109.54L844.7 134.54L844.7 184.54L801.4 209.54L758.09 184.54L758.09 134.54zM844.7 184.54L888 209.54L888 259.54L844.7 284.54L801.4 259.54L801.4 209.54zM888 -40.46L931.3 -15.46L931.3 34.54L888 59.54L844.7 34.54L844.7 -15.46zM888 109.54L931.3 134.54L931.3 184.54L888 209.54L844.7 184.54L844.7 134.54zM888 409.54L931.3 434.54L931.3 484.54L888 509.54L844.7 484.54L844.7 434.54zM1017.91 334.54L1061.21 359.54L1061.21 409.54L1017.91 434.54L974.61 409.54L974.61 359.54zM1104.51 184.54L1147.82 209.54L1147.82 259.54L1104.51 284.54L1061.21 259.54L1061.21 209.54zM1104.51 334.54L1147.82 359.54L1147.82 409.54L1104.51 434.54L1061.21 409.54L1061.21 359.54zM1061.21 409.54L1104.51 434.54L1104.51 484.54L1061.21 509.54L1017.91 484.54L1017.91 434.54zM1147.82 -40.46L1191.12 -15.46L1191.12 34.54L1147.82 59.54L1104.51 34.54L1104.51 -15.46zM1147.82 109.54L1191.12 134.54L1191.12 184.54L1147.82 209.54L1104.51 184.54L1104.51 134.54zM1147.82 259.54L1191.12 284.54L1191.12 334.54L1147.82 359.54L1104.51 334.54L1104.51 284.54zM1147.82 409.54L1191.12 434.54L1191.12 484.54L1147.82 509.54L1104.51 484.54L1104.51 434.54zM1191.12 484.54L1234.42 509.54L1234.42 559.54L1191.12 584.54L1147.82 559.54L1147.82 509.54zM1147.82 559.54L1191.12 584.54L1191.12 634.54L1147.82 659.54L1104.51 634.54L1104.51 584.54zM1277.72 184.54L1321.03 209.54L1321.03 259.54L1277.72 284.54L1234.42 259.54L1234.42 209.54zM1321.03 -40.46L1364.33 -15.46L1364.33 34.54L1321.03 59.54L1277.72 34.54L1277.72 -15.46zM1364.33 184.54L1407.63 209.54L1407.63 259.54L1364.33 284.54L1321.03 259.54L1321.03 209.54zM1321.03 409.54L1364.33 434.54L1364.33 484.54L1321.03 509.54L1277.72 484.54L1277.72 434.54zM1450.93 334.54L1494.24 359.54L1494.24 409.54L1450.93 434.54L1407.63 409.54L1407.63 359.54zM1450.93 484.54L1494.24 509.54L1494.24 559.54L1450.93 584.54L1407.63 559.54L1407.63 509.54zM1407.63 559.54L1450.93 584.54L1450.93 634.54L1407.63 659.54L1364.33 634.54L1364.33 584.54z" stroke="rgba(6, 80, 156, 0.93)" stroke-width="2"></path></g><defs><mask id="SvgjsMask1009"><rect width="1440" height="600" fill="#ffffff"></rect></mask></defs></svg>